<?xml version="1.0" encoding="UTF-8"?>
<svg xmlns="http://www.w3.org/2000/svg" xmlns:xlink="http://www.w3.org/1999/xlink" viewBox="0 0 50 50" version="1.1" fill="#000000"><g id="surface1" fill="#000000"><path style=" " d="M 11 4 C 9.347656 4 8 5.347656 8 7 L 8 12 L 7 12 C 6.640625 11.996094 6.304688 12.183594 6.121094 12.496094 C 5.941406 12.808594 5.941406 13.191406 6.121094 13.503906 C 6.304688 13.816406 6.640625 14.003906 7 14 L 11 14 C 11.351563 14.003906 11.679688 13.824219 11.863281 13.527344 C 11.941406 13.667969 12 13.824219 12 14 C 12 14.550781 11.550781 15 11 15 L 8 15 L 8 18 L 7 18 C 6.640625 17.996094 6.304688 18.183594 6.121094 18.496094 C 5.941406 18.808594 5.941406 19.191406 6.121094 19.503906 C 6.304688 19.816406 6.640625 20.003906 7 20 L 11 20 C 11.351563 20.003906 11.679688 19.824219 11.863281 19.527344 C 11.941406 19.667969 12 19.824219 12 20 C 12 20.550781 11.550781 21 11 21 L 8 21 L 8 24 L 7 24 C 6.640625 23.996094 6.304688 24.183594 6.121094 24.496094 C 5.941406 24.808594 5.941406 25.191406 6.121094 25.503906 C 6.304688 25.816406 6.640625 26.003906 7 26 L 11 26 C 11.351563 26.003906 11.679688 25.824219 11.863281 25.527344 C 11.941406 25.667969 12 25.824219 12 26 C 12 26.554688 11.550781 27 11 27 L 8 27 L 8 30 L 7 30 C 6.640625 29.996094 6.304688 30.183594 6.121094 30.496094 C 5.941406 30.808594 5.941406 31.191406 6.121094 31.503906 C 6.304688 31.816406 6.640625 32.003906 7 32 L 11 32 C 11.351563 32.003906 11.679688 31.824219 11.863281 31.527344 C 11.941406 31.667969 12 31.824219 12 32 C 12 32.554688 11.550781 33 11 33 L 8 33 L 8 36 L 7 36 C 6.640625 35.996094 6.304688 36.183594 6.121094 36.496094 C 5.941406 36.808594 5.941406 37.191406 6.121094 37.503906 C 6.304688 37.816406 6.640625 38.003906 7 38 L 11 38 C 11.351563 38.003906 11.679688 37.824219 11.863281 37.527344 C 11.941406 37.667969 12 37.824219 12 38 C 12 38.554688 11.550781 39 11 39 L 8 39 L 8 43 C 8 44.652344 9.347656 46 11 46 L 39 46 C 40.652344 46 42 44.652344 42 43 L 42 7 C 42 5.347656 40.652344 4 39 4 Z M 17 13 L 35 13 L 35 25 L 17 25 Z M 20 16 L 20 18 L 32 18 L 32 16 Z M 20 20 L 20 22 L 32 22 L 32 20 Z " fill="#000000"/></g></svg>
